<svg width="33" height="33" viewBox="0 0 33 33" fill="none" xmlns="http://www.w3.org/2000/svg">
<path opacity="0.7" fill-rule="evenodd" clip-rule="evenodd" d="M23.59 24.0929V16.1418C23.59 15.92 23.4676 15.7162 23.2718 15.6121L16.7818 12.1602C16.6056 12.0665 16.3944 12.0665 16.2183 12.1602L9.72826 15.6121C9.53241 15.7162 9.41001 15.92 9.41001 16.1418V24.0929C9.41001 24.4242 9.67864 24.6929 10.01 24.6929H22.99C23.3214 24.6929 23.59 24.4242 23.59 24.0929ZM9.07084 14.376C8.418 14.7233 8.01001 15.4024 8.01001 16.1418V24.0929C8.01001 25.1974 8.90544 26.0929 10.01 26.0929H22.99C24.0946 26.0929 24.99 25.1974 24.99 24.0929V16.1418C24.99 15.4024 24.582 14.7233 23.9292 14.376L17.4392 10.9242C16.852 10.6119 16.148 10.6119 15.5608 10.9242L9.07084 14.376Z" fill="white"/>
<path opacity="0.7" fill-rule="evenodd" clip-rule="evenodd" d="M17.1104 8.54205C16.7288 8.33906 16.2712 8.33906 15.8895 8.54205L8.33866 12.5581C7.99734 12.7397 7.57347 12.6101 7.39193 12.2688C7.21039 11.9275 7.33992 11.5036 7.68124 11.3221L15.2321 7.30601C16.0248 6.88441 16.9752 6.88441 17.7678 7.30601L25.3187 11.3221C25.66 11.5036 25.7895 11.9275 25.608 12.2688C25.4264 12.6101 25.0026 12.7397 24.6612 12.5581L17.1104 8.54205Z" fill="white"/>
</svg>
