<svg width="32" height="33" viewBox="0 0 32 33" fill="none" xmlns="http://www.w3.org/2000/svg">
<path fill-rule="evenodd" clip-rule="evenodd" d="M15.04 9.92592C11.1748 9.92592 8.03998 13.0608 8.03998 16.9259C8.03998 19.3349 9.26199 21.4655 11.1269 22.7271C11.4318 22.9334 11.5118 23.3478 11.3055 23.6528C11.0992 23.9578 10.6847 24.0377 10.3798 23.8314C8.16464 22.333 6.70665 19.7969 6.70665 16.9259C6.70665 12.3244 10.4385 8.59259 15.04 8.59259C19.6415 8.59259 23.3733 12.3244 23.3733 16.9259C23.3733 17.2941 23.0748 17.5926 22.7066 17.5926C22.3385 17.5926 22.04 17.2941 22.04 16.9259C22.04 13.0608 18.9051 9.92592 15.04 9.92592Z" fill="white"/>
<path fill-rule="evenodd" clip-rule="evenodd" d="M19.8524 15.8785C20.0996 15.6056 20.5212 15.5848 20.794 15.8319L22.5265 17.4013L24.2589 15.8319C24.5318 15.5848 24.9534 15.6056 25.2006 15.8785C25.4477 16.1513 25.4269 16.5729 25.154 16.8201L23.1016 18.6793C23.1014 18.6795 23.1012 18.6797 23.101 18.6798C22.7736 18.977 22.2793 18.977 21.9519 18.6798C21.9517 18.6797 21.9515 18.6795 21.9514 18.6793L19.8989 16.8201C19.626 16.5729 19.6052 16.1513 19.8524 15.8785Z" fill="white"/>
<path fill-rule="evenodd" clip-rule="evenodd" d="M8.32116 11.9388L8.34271 11.9101L8.36437 11.8815C8.5872 11.5884 9.00545 11.5314 9.29857 11.7542C9.59169 11.9771 9.64867 12.3953 9.42584 12.6884L9.40758 12.7126L9.38941 12.7368C9.16907 13.0318 8.75131 13.0923 8.45632 12.8719C8.16133 12.6516 8.10082 12.2338 8.32116 11.9388ZM7.47473 15.2967C7.84003 15.3428 8.09879 15.6763 8.05268 16.0416C8.05018 16.0615 8.04775 16.0814 8.04542 16.1013C8.00246 16.467 7.67119 16.7286 7.3055 16.6856C6.93982 16.6426 6.6782 16.3114 6.72117 15.9457C6.72395 15.922 6.72683 15.8983 6.72982 15.8747C6.77592 15.5094 7.10943 15.2506 7.47473 15.2967ZM11.3589 10.1423C11.2139 9.80385 11.3707 9.41194 11.7091 9.26694C11.731 9.25754 11.753 9.24825 11.775 9.23905C12.1147 9.09695 12.5052 9.25713 12.6473 9.5968C12.7894 9.93647 12.6292 10.327 12.2895 10.4691C12.2711 10.4768 12.2526 10.4847 12.2342 10.4925C11.8958 10.6375 11.5039 10.4807 11.3589 10.1423ZM7.66958 19.2762C8.00926 19.1341 8.39981 19.2943 8.5419 19.6339C8.54963 19.6524 8.55744 19.6708 8.56532 19.6893C8.71033 20.0277 8.55352 20.4196 8.21508 20.5646C7.87664 20.7096 7.48473 20.5528 7.33972 20.2144C7.33033 20.1924 7.32103 20.1705 7.31183 20.1485C7.16974 19.8088 7.32991 19.4183 7.66958 19.2762ZM15.2379 9.23272C15.2808 8.86704 15.6121 8.60542 15.9778 8.64838C16.0015 8.65116 16.0251 8.65405 16.0488 8.65703C16.4141 8.70313 16.6729 9.03664 16.6268 9.40194C16.5807 9.76724 16.2472 10.026 15.8819 9.9799C15.862 9.97739 15.8421 9.97497 15.8222 9.97263C15.4565 9.92967 15.1949 9.5984 15.2379 9.23272ZM19.0516 10.3835C19.2719 10.0886 19.6897 10.028 19.9846 10.2484L20.0134 10.2699L20.042 10.2916C20.3351 10.5144 20.3921 10.9327 20.1693 11.2258C19.9464 11.5189 19.5282 11.5759 19.2351 11.3531L19.2109 11.3348L19.1867 11.3166C18.8917 11.0963 18.8312 10.6785 19.0516 10.3835ZM9.82702 22.6249C10.0498 22.3318 10.4681 22.2748 10.7612 22.4976L10.7853 22.5159L10.8096 22.5341C11.1045 22.7544 11.1651 23.1722 10.9447 23.4672C10.7244 23.7621 10.3066 23.8227 10.0116 23.6023L9.98291 23.5808L9.95429 23.5591C9.66117 23.3363 9.60419 22.918 9.82702 22.6249ZM13.3695 24.4488C13.4156 24.0835 13.7491 23.8247 14.1144 23.8708C14.1343 23.8733 14.1542 23.8757 14.1741 23.8781C14.5397 23.921 14.8014 24.2523 14.7584 24.618C14.7154 24.9837 14.3842 25.2453 14.0185 25.2023C13.9948 25.1995 13.9711 25.1967 13.9475 25.1937C13.5822 25.1476 13.3234 24.8141 13.3695 24.4488ZM21.7812 13.2861C22.1196 13.1411 22.5115 13.2979 22.6565 13.6363C22.6659 13.6583 22.6752 13.6802 22.6844 13.7022C22.8265 14.0419 22.6664 14.4324 22.3267 14.5745C21.987 14.7166 21.5965 14.5564 21.4544 14.2168C21.4466 14.1983 21.4388 14.1799 21.4309 14.1614C21.2859 13.823 21.4427 13.4311 21.7812 13.2861ZM17.349 24.2539C17.2069 23.9142 17.367 23.5237 17.7067 23.3816C17.7252 23.3739 17.7436 23.366 17.762 23.3582C18.1005 23.2132 18.4924 23.37 18.6374 23.7084C18.7824 24.0468 18.6256 24.4388 18.2872 24.5838C18.2652 24.5932 18.2433 24.6025 18.2213 24.6117C17.8816 24.7537 17.4911 24.5936 17.349 24.2539ZM22.6908 17.1651C23.0564 17.2081 23.3181 17.5393 23.2751 17.905C23.2723 17.9287 23.2694 17.9524 23.2664 17.976C23.2203 18.3413 22.8868 18.6001 22.5215 18.554C22.1562 18.5079 21.8975 18.1744 21.9436 17.8091C21.9461 17.7892 21.9485 17.7693 21.9508 17.7494C21.9938 17.3837 22.3251 17.1221 22.6908 17.1651ZM20.6977 22.0965C20.4046 21.8736 20.3476 21.4554 20.5704 21.1623L20.5887 21.1381L20.6069 21.1139C20.8272 20.8189 21.245 20.7584 21.5399 20.9788C21.8349 21.1991 21.8954 21.6169 21.6751 21.9119L21.6536 21.9406L21.6319 21.9692C21.4091 22.2623 20.9908 22.3193 20.6977 22.0965Z" fill="white"/>
<path fill-rule="evenodd" clip-rule="evenodd" d="M14.9985 18.2587C15.7349 18.2587 16.3319 17.6617 16.3319 16.9253C16.3319 16.189 15.7349 15.592 14.9985 15.592C14.2622 15.592 13.6652 16.189 13.6652 16.9253C13.6652 17.6617 14.2622 18.2587 14.9985 18.2587ZM14.9985 19.592C16.4713 19.592 17.6652 18.3981 17.6652 16.9253C17.6652 15.4526 16.4713 14.2587 14.9985 14.2587C13.5258 14.2587 12.3319 15.4526 12.3319 16.9253C12.3319 18.3981 13.5258 19.592 14.9985 19.592Z" fill="white"/>
</svg>
