<svg width="33" height="33" viewBox="0 0 33 33" fill="none" xmlns="http://www.w3.org/2000/svg">
<path fill-rule="evenodd" clip-rule="evenodd" d="M22.4322 10.2591C22.4322 9.89088 22.7307 9.59241 23.0989 9.59241H25.0256C25.3937 9.59241 25.6922 9.89088 25.6922 10.2591C25.6922 10.6273 25.3937 10.9257 25.0256 10.9257H23.0989C22.7307 10.9257 22.4322 10.6273 22.4322 10.2591Z" fill="white"/>
<path fill-rule="evenodd" clip-rule="evenodd" d="M7.00522 10.2591C7.00522 9.89088 7.3037 9.59241 7.67189 9.59241H18.0252C18.3934 9.59241 18.6919 9.89088 18.6919 10.2591C18.6919 10.6273 18.3934 10.9257 18.0252 10.9257H7.67189C7.3037 10.9257 7.00522 10.6273 7.00522 10.2591Z" fill="white"/>
<path fill-rule="evenodd" clip-rule="evenodd" d="M7.00522 23.4259C7.00522 23.0577 7.3037 22.7592 7.67189 22.7592H15.0252C15.3934 22.7592 15.6919 23.0577 15.6919 23.4259C15.6919 23.7941 15.3934 24.0925 15.0252 24.0925H7.67189C7.3037 24.0925 7.00522 23.7941 7.00522 23.4259Z" fill="white"/>
<path fill-rule="evenodd" clip-rule="evenodd" d="M19.3655 23.4259C19.3655 23.0577 19.664 22.7592 20.0321 22.7592H25.0255C25.3937 22.7592 25.6921 23.0577 25.6921 23.4259C25.6921 23.7941 25.3937 24.0925 25.0255 24.0925H20.0321C19.664 24.0925 19.3655 23.7941 19.3655 23.4259Z" fill="white"/>
<path fill-rule="evenodd" clip-rule="evenodd" d="M13.7054 16.9258C13.7054 16.5576 14.0039 16.2592 14.3721 16.2592H25.0254C25.3936 16.2592 25.6921 16.5576 25.6921 16.9258C25.6921 17.294 25.3936 17.5925 25.0254 17.5925H14.3721C14.0039 17.5925 13.7054 17.294 13.7054 16.9258Z" fill="white"/>
<path fill-rule="evenodd" clip-rule="evenodd" d="M7.00522 16.9258C7.00522 16.5576 7.3037 16.2592 7.67189 16.2592H9.74522C10.1134 16.2592 10.4119 16.5576 10.4119 16.9258C10.4119 17.294 10.1134 17.5925 9.74522 17.5925H7.67189C7.3037 17.5925 7.00522 17.294 7.00522 16.9258Z" fill="white"/>
<path fill-rule="evenodd" clip-rule="evenodd" d="M17.5053 24.7592C18.2417 24.7592 18.8386 24.1623 18.8386 23.4259C18.8386 22.6895 18.2417 22.0925 17.5053 22.0925C16.7689 22.0925 16.172 22.6895 16.172 23.4259C16.172 24.1623 16.7689 24.7592 17.5053 24.7592ZM17.5053 26.0925C18.978 26.0925 20.172 24.8986 20.172 23.4259C20.172 21.9531 18.978 20.7592 17.5053 20.7592C16.0325 20.7592 14.8386 21.9531 14.8386 23.4259C14.8386 24.8986 16.0325 26.0925 17.5053 26.0925Z" fill="white"/>
<path fill-rule="evenodd" clip-rule="evenodd" d="M11.8587 18.2592C12.5951 18.2592 13.1921 17.6622 13.1921 16.9258C13.1921 16.1894 12.5951 15.5925 11.8587 15.5925C11.1223 15.5925 10.5254 16.1894 10.5254 16.9258C10.5254 17.6622 11.1223 18.2592 11.8587 18.2592ZM11.8587 19.5925C13.3315 19.5925 14.5254 18.3986 14.5254 16.9258C14.5254 15.4531 13.3315 14.2592 11.8587 14.2592C10.386 14.2592 9.19206 15.4531 9.19206 16.9258C9.19206 18.3986 10.386 19.5925 11.8587 19.5925Z" fill="white"/>
<path fill-rule="evenodd" clip-rule="evenodd" d="M20.5254 11.4258C21.2618 11.4258 21.8587 10.8289 21.8587 10.0925C21.8587 9.35613 21.2618 8.75918 20.5254 8.75918C19.789 8.75918 19.1921 9.35613 19.1921 10.0925C19.1921 10.8289 19.789 11.4258 20.5254 11.4258ZM20.5254 12.7592C21.9982 12.7592 23.1921 11.5653 23.1921 10.0925C23.1921 8.61975 21.9982 7.42584 20.5254 7.42584C19.0526 7.42584 17.8587 8.61975 17.8587 10.0925C17.8587 11.5653 19.0526 12.7592 20.5254 12.7592Z" fill="white"/>
</svg>
